<mxfile host="app.diagrams.net" agent="Mozilla/5.0 (Windows NT 10.0; Win64; x64; rv:135.0) Gecko/20100101 Firefox/135.0" version="26.0.11">
  <diagram name="Seite-1" id="6jQBWpyUeePbVizUZ3Z-">
    <mxGraphModel dx="1562" dy="818" grid="1" gridSize="10" guides="1" tooltips="1" connect="1" arrows="1" fold="1" page="1" pageScale="1" pageWidth="827" pageHeight="1169" math="0" shadow="0">
      <root>
        <mxCell id="0" />
        <mxCell id="1" parent="0" />
        <mxCell id="hhO5MQMV3K_sRxV9Ae-h-5" value="" style="edgeStyle=orthogonalEdgeStyle;rounded=0;orthogonalLoop=1;jettySize=auto;html=1;" edge="1" parent="1" source="hhO5MQMV3K_sRxV9Ae-h-1" target="hhO5MQMV3K_sRxV9Ae-h-4">
          <mxGeometry relative="1" as="geometry" />
        </mxCell>
        <mxCell id="hhO5MQMV3K_sRxV9Ae-h-1" value="" style="ellipse;html=1;shape=startState;fillColor=#000000;strokeColor=#000000;" vertex="1" parent="1">
          <mxGeometry x="220" y="70" width="30" height="30" as="geometry" />
        </mxCell>
        <mxCell id="hhO5MQMV3K_sRxV9Ae-h-3" value="" style="ellipse;html=1;shape=endState;fillColor=#000000;strokeColor=#000000;" vertex="1" parent="1">
          <mxGeometry x="220" y="450" width="30" height="30" as="geometry" />
        </mxCell>
        <mxCell id="hhO5MQMV3K_sRxV9Ae-h-8" value="" style="edgeStyle=orthogonalEdgeStyle;rounded=0;orthogonalLoop=1;jettySize=auto;html=1;" edge="1" parent="1" source="hhO5MQMV3K_sRxV9Ae-h-4" target="hhO5MQMV3K_sRxV9Ae-h-6">
          <mxGeometry relative="1" as="geometry" />
        </mxCell>
        <mxCell id="hhO5MQMV3K_sRxV9Ae-h-4" value="Prepare" style="html=1;whiteSpace=wrap;" vertex="1" parent="1">
          <mxGeometry x="180" y="150" width="110" height="50" as="geometry" />
        </mxCell>
        <mxCell id="hhO5MQMV3K_sRxV9Ae-h-9" value="" style="edgeStyle=orthogonalEdgeStyle;rounded=0;orthogonalLoop=1;jettySize=auto;html=1;" edge="1" parent="1" source="hhO5MQMV3K_sRxV9Ae-h-6" target="hhO5MQMV3K_sRxV9Ae-h-7">
          <mxGeometry relative="1" as="geometry" />
        </mxCell>
        <mxCell id="hhO5MQMV3K_sRxV9Ae-h-6" value="Interview" style="html=1;whiteSpace=wrap;" vertex="1" parent="1">
          <mxGeometry x="180" y="260" width="110" height="50" as="geometry" />
        </mxCell>
        <mxCell id="hhO5MQMV3K_sRxV9Ae-h-10" value="" style="edgeStyle=orthogonalEdgeStyle;rounded=0;orthogonalLoop=1;jettySize=auto;html=1;" edge="1" parent="1" source="hhO5MQMV3K_sRxV9Ae-h-7" target="hhO5MQMV3K_sRxV9Ae-h-3">
          <mxGeometry relative="1" as="geometry" />
        </mxCell>
        <mxCell id="hhO5MQMV3K_sRxV9Ae-h-7" value="Post Processing" style="html=1;whiteSpace=wrap;" vertex="1" parent="1">
          <mxGeometry x="180" y="360" width="110" height="50" as="geometry" />
        </mxCell>
        <mxCell id="hhO5MQMV3K_sRxV9Ae-h-11" value="&lt;div align=&quot;left&quot;&gt;&lt;b&gt;prepare&lt;/b&gt;&lt;br&gt;&lt;/div&gt;&lt;div align=&quot;left&quot;&gt;&lt;br&gt;transforms the paper for the RAG&lt;br&gt;generates notes for introduction and wrap up&lt;br&gt;finds podcast topics&lt;br&gt;generates notes for every question and answer&lt;/div&gt;" style="text;html=1;align=left;verticalAlign=middle;whiteSpace=wrap;rounded=0;" vertex="1" parent="1">
          <mxGeometry x="330" y="150" width="270" height="30" as="geometry" />
        </mxCell>
        <mxCell id="hhO5MQMV3K_sRxV9Ae-h-12" value="&lt;div align=&quot;left&quot;&gt;&lt;b&gt;interview[:&amp;lt;question-number&amp;gt;]&lt;/b&gt;&lt;/div&gt;&lt;div align=&quot;left&quot;&gt;&lt;br&gt;iterates over every question and performs a style transfer of the prepared notes to the final podcast content&lt;/div&gt;" style="text;html=1;align=left;verticalAlign=middle;whiteSpace=wrap;rounded=0;" vertex="1" parent="1">
          <mxGeometry x="330" y="270" width="270" height="30" as="geometry" />
        </mxCell>
        <mxCell id="hhO5MQMV3K_sRxV9Ae-h-14" value="&lt;div align=&quot;left&quot;&gt;&lt;b&gt;post_processing&lt;/b&gt;&lt;/div&gt;&lt;div align=&quot;left&quot;&gt;&lt;br&gt;generate transcript&lt;br&gt;translate text into speech&lt;br&gt;mixes the podcast audio and video files&lt;/div&gt;" style="text;html=1;align=left;verticalAlign=middle;whiteSpace=wrap;rounded=0;" vertex="1" parent="1">
          <mxGeometry x="330" y="370" width="270" height="30" as="geometry" />
        </mxCell>
      </root>
    </mxGraphModel>
  </diagram>
</mxfile>
